<svg width="33" height="33" viewBox="0 0 33 33" fill="none" xmlns="http://www.w3.org/2000/svg">
<mask id="mask0_154361_2469" style="mask-type:alpha" maskUnits="userSpaceOnUse" x="0" y="0" width="33" height="33">
<path d="M16.25 32.5C25.2246 32.5 32.5 25.2246 32.5 16.25C32.5 7.27537 25.2246 0 16.25 0C7.27537 0 0 7.27537 0 16.25C0 25.2246 7.27537 32.5 16.25 32.5Z" fill="url(#paint0_linear_154361_2469)"/>
</mask>
<g mask="url(#mask0_154361_2469)">
<path d="M16.25 0.5C24.9485 0.5 32 7.55152 32 16.25C32 24.9485 24.9485 32 16.25 32C7.55152 32 0.5 24.9485 0.5 16.25C0.5 7.55152 7.55152 0.5 16.25 0.5Z" fill="white" stroke="#AD74F9"/>
<g opacity="0.6">
<path d="M18.5992 -1.2176C23.4683 -1.67895 27.9786 -0.141113 31.1051 1.96061C33.0541 3.27076 34.5685 4.55852 35.7844 5.90787C37.0376 7.29844 37.9737 8.75442 38.742 10.3677C39.4575 11.8704 40.033 13.5111 40.5023 15.3402C40.9643 17.1408 41.3235 19.124 41.6122 21.3378C42.0735 24.8749 42.2272 28.2582 42.2272 30.2575C42.2272 32.2567 42.2785 34.5635 42.2272 36.5627H-49.5172C-49.5514 36.0842 -49.5992 31.2622 -49.5172 29.3347C-49.4147 26.9254 -49.261 26.0027 -48.6972 24.7211C-48.1334 23.4395 -47.3454 21.7479 -45.3144 20.7739C-43.2834 19.7999 -41.1628 19.9024 -40.3428 20.21C-40.0353 19.031 -38.5489 15.2376 -36.2937 12.8282C-34.0385 10.4189 -31.6809 8.21461 -29.477 7.1381C-27.273 6.06159 -24.8128 5.26469 -21.2763 5.54897C-17.7293 5.83409 -15.656 6.97459 -13.6143 8.09774L-13.5883 8.11209C-11.5381 9.23986 -10.513 10.1728 -9.79547 10.6752C-9.28293 11.034 -9.02666 10.829 -8.56538 10.5214L-8.14277 10.2265C-7.64635 9.87684 -6.85452 9.31639 -6.36146 8.98355C-5.54004 8.42905 -4.50546 7.83397 -3.38873 7.1381C-0.112953 5.09685 0.660328 4.78004 4.81189 2.72954C8.96346 0.679044 13.7301 -0.756249 18.5992 -1.2176Z" fill="#C99FFF"/>
<path d="M-6.36146 8.98355C-7.05876 9.45425 -8.35358 10.3802 -8.56538 10.5214C-9.02666 10.829 -9.28293 11.034 -9.79547 10.6752C-10.513 10.1728 -11.5381 9.23986 -13.5883 8.11209C-15.6384 6.98431 -17.7142 5.8353 -21.2763 5.54897C-24.8128 5.26469 -27.273 6.06159 -29.477 7.1381C-31.6809 8.21461 -34.0385 10.4189 -36.2937 12.8282C-38.5489 15.2376 -40.0353 19.031 -40.3428 20.21C-41.1628 19.9024 -43.2834 19.7999 -45.3144 20.7739C-47.3454 21.7479 -48.1334 23.4395 -48.6972 24.7211C-49.261 26.0027 -49.4147 26.9254 -49.5172 29.3347C-49.5992 31.2622 -49.5514 36.0842 -49.5172 36.5627C-49.5172 36.5627 8.96345 36.5627 42.2272 36.5627C42.2785 34.5635 42.2272 32.2567 42.2272 30.2575C42.2272 28.2582 42.0735 24.8749 41.6122 21.3378C41.3235 19.124 40.9643 17.1408 40.5023 15.3402C40.033 13.5111 39.4575 11.8704 38.742 10.3677C37.9737 8.75442 37.0376 7.29844 35.7844 5.90787C34.5685 4.55852 33.0541 3.27076 31.1051 1.96061C27.9786 -0.141113 23.4683 -1.67895 18.5992 -1.2176C13.7301 -0.756249 8.96346 0.679044 4.81189 2.72954C0.660329 4.78004 -0.112952 5.09685 -3.38873 7.1381C-4.50546 7.83397 -5.54004 8.42905 -6.36146 8.98355ZM-8.56538 10.5214L-6.36146 8.98355" stroke="#C99FFF"/>
</g>
<path d="M16.6712 14.755C16.6712 17.6105 15.0558 20.4661 12.6295 20.4661C10.2033 20.4661 8.5 17.6545 8.5 14.6671C8.5 11.6798 10.2033 9 12.6295 9C15.0558 9 16.6712 11.8995 16.6712 14.755Z" fill="white"/>
<circle opacity="0.9" cx="12.6292" cy="16.732" r="1.52084" fill="#403F43" stroke="#403F43"/>
<path d="M25.1067 14.5353C25.2314 17.6105 23.3155 20.4661 20.8893 20.4661C18.463 20.4661 16.7158 17.918 16.7158 14.7111C16.7158 11.5041 18.463 9 20.8893 9C23.3155 9 24.982 11.4601 25.1067 14.5353Z" fill="white"/>
<circle opacity="0.9" cx="20.097" cy="16.732" r="1.52084" fill="#403F43" stroke="#403F43"/>
<path opacity="0.9" d="M15.3592 21.0736C15.2474 20.8845 15.0871 20.7112 14.8777 20.8068C14.6431 20.914 14.6991 21.2449 14.8294 21.4655L14.8309 21.468C14.9612 21.6885 15.1551 22.0167 15.3952 22.26C15.7007 22.5696 16.0509 22.7477 16.4463 22.7503C16.8417 22.7529 17.0979 22.586 17.3715 22.3611C17.6365 22.1432 17.9906 21.7501 18.1239 21.5314C18.2571 21.3126 18.3907 21.0499 18.2161 20.873C18.0416 20.6961 17.8066 20.889 17.6878 21.0452C17.4219 21.3949 17.3382 21.5211 17.112 21.7443C17.0236 21.8315 16.7582 22.0934 16.4068 22.091C16.1522 22.0893 15.9573 21.9123 15.8377 21.7797C15.6536 21.5755 15.4895 21.2941 15.3592 21.0736Z" fill="#403F43" stroke="#403F43" stroke-width="0.2"/>
</g>
<defs>
<linearGradient id="paint0_linear_154361_2469" x1="16.25" y1="0" x2="16.25" y2="32.5" gradientUnits="userSpaceOnUse">
<stop stop-color="#E3ECFA"/>
<stop offset="1" stop-color="#DAE7FF"/>
</linearGradient>
</defs>
</svg>
